#!OML:ASF X:\für Bonn\!DataBase\2005_08_10_Bjorn_Final\c3d\bjorn.ASF
:FULLY-SPECIFIED
:DEGREES
761
root -0.129097 1.54895 11.5184 -2069.91 -6.27398 188.515
lowerback -3.19699 0.165594 -4.19368
upperback 4.12304 0.478819 -4.2893
thorax 6.09288 0.052068 -2.09539
lowerneck -17.3056 -5.48836 -0.02983
upperneck 4.98546 -8.26685 5.777
head 4.52083 -3.87073 1.05694
rclavicle 4.6118e-014 -1.94809e-014
rhumerus -56.7836 44.3087 -103.729
rradius 112.005
rwrist -33.3924
rhand 11.0313 6.2836
rfingers 7.12502
rthumb 36.1038 -20.0073
lclavicle 4.6118e-014 -1.94809e-014
lhumerus -61.9496 -67.2507 106.716
lradius 112.499
lwrist 34.6614
lhand 5.34085 -11.7531
lfingers 7.12502
lthumb 30.695 735.706
rfemur -367.878 -24.4005 366.964
rtibia 29.2528
rfoot 5.80469 -10.9506
rtoes 14.4467
lfemur -6.89505 1.38468 -15.0784
ltibia 20.1706
lfoot 7.50206 9.07617
ltoes 2.21777
762
root -0.131875 1.54857 11.519 -2069.91 -6.27582 188.523
lowerback -3.20327 0.162706 -4.16779
upperback 4.12621 0.474432 -4.29415
thorax 6.10002 0.0511727 -2.11542
lowerneck -17.3277 -5.48834 -0.0310986
upperneck 4.9657 -8.26275 5.75438
head 4.51687 -3.8701 1.0504
rclavicle -9.54166e-015 -1.37161e-014
rhumerus -56.7776 44.32 -103.728
rradius 112.002
rwrist -33.3408
rhand 10.9952 6.29924
rfingers 7.12502
rthumb 36.0697 -20.0001
lclavicle -9.54166e-015 -1.37161e-014
lhumerus -61.8546 -67.2296 106.621
lradius 112.473
lwrist 34.6068
lhand 5.41056 -11.8278
lfingers 7.12502
lthumb 30.7615 735.619
rfemur -367.882 -24.3775 366.965
rtibia 29.2445
rfoot 5.81163 -10.983
rtoes 14.5871
lfemur -6.89434 1.40065 -15.0743
ltibia 20.1727
lfoot 7.363 9.29735
ltoes 2.47104
763
root -0.133761 1.54805 11.5191 -2069.92 -6.2755 188.541
lowerback -3.1857 0.146665 -4.14538
upperback 4.13275 0.451396 -4.30108
thorax 6.09688 0.0411091 -2.13714
lowerneck -17.3215 -5.47277 -0.010254
upperneck 4.94317 -8.24307 5.737
head 4.50665 -3.86173 1.04425
rclavicle -2.22639e-014 -6.16232e-015
rhumerus -56.7928 44.34 -103.769
rradius 111.978
rwrist -33.2911
rhand 10.9513 6.3546
rfingers 7.12502
rthumb 36.0281 -19.955
lclavicle -2.22639e-014 -6.16232e-015
lhumerus -61.7514 -67.1999 106.506
lradius 112.458
lwrist 34.5592
lhand 5.4111 -11.8617
lfingers 7.12502
lthumb 30.762 735.585
rfemur -367.852 -24.3954 366.952
rtibia 29.2299
rfoot 5.85429 -10.9638
rtoes 14.6539
lfemur -6.87449 1.40868 -15.0679
ltibia 20.1797
lfoot 7.26994 9.45679
ltoes 2.24598
764
root -0.135384 1.54738 11.5191 -2069.92 -6.28976 188.544
lowerback -3.17032 0.145285 -4.14167
upperback 4.12942 0.448089 -4.30834
thorax 6.08457 0.0398279 -2.14694
lowerneck -17.3288 -5.46907 -0.00168526
upperneck 4.91583 -8.23578 5.71388
head 4.49755 -3.85994 1.03683
rclavicle 1.90833e-014 -4.17448e-015
rhumerus -56.7982 44.3407 -103.785
rradius 111.962
rwrist -33.2263
rhand 10.888 6.40448
rfingers 7.12502
rthumb 35.9681 -19.9199
lclavicle 1.90833e-014 -4.17448e-015
lhumerus -61.6886 -67.1778 106.458
lradius 112.429
lwrist 34.5381
lhand 5.45858 -11.9096
lfingers 7.12502
lthumb 30.8073 735.528
rfemur -367.853 -24.3795 366.934
rtibia 29.2195
rfoot 5.87893 -10.9795
rtoes 14.6258
lfemur -6.8686 1.5144 -15.0767
ltibia 20.1835
lfoot 7.22376 9.57585
ltoes 2.33293
765
root -0.137633 1.54644 11.5197 -2069.93 -6.27572 188.555
lowerback -3.15995 0.140077 -4.09074
upperback 4.13741 0.438228 -4.32467
thorax 6.0874 0.0374143 -2.19348
lowerneck -17.3319 -5.4567 0.0477281
upperneck 4.87815 -8.22781 5.69567
head 4.48325 -3.85784 1.02489
rclavicle 3.81667e-014 -6.1822e-014
rhumerus -56.7819 44.3597 -103.815
rradius 111.954
rwrist -33.2048
rhand 10.8428 6.40548
rfingers 7.12502
rthumb 35.9253 -19.9294
lclavicle 3.81667e-014 -6.1822e-014
lhumerus -61.5737 -67.1827 106.321
lradius 112.411
lwrist 34.5164
lhand 5.50089 -11.9319
lfingers 7.12502
lthumb 30.8476 735.499
rfemur -367.837 -24.3347 366.951
rtibia 29.2051
rfoot 5.87232 -11.0018
rtoes 14.6872
lfemur -6.85806 1.5146 -15.0581
ltibia 20.1907
lfoot 7.1113 9.76024
ltoes 2.45764
766
root -0.139305 1.54651 11.5201 -2069.93 -6.2904 188.554
lowerback -3.15925 0.139995 -4.08884
upperback 4.13907 0.437979 -4.33222
thorax 6.08886 0.0373357 -2.20254
lowerneck -17.3212 -5.45452 0.0411282
upperneck 4.8313 -8.22034 5.68962
head 4.46668 -3.85629 1.02582
rclavicle 3.18055e-014 -1.88845e-014
rhumerus -56.7732 44.3586 -103.82
rradius 111.939
rwrist -33.1653
rhand 10.8029 6.41927
rfingers 7.12502
rthumb 35.8874 -19.9248
lclavicle 3.18055e-014 -1.88845e-014
lhumerus -61.5038 -67.1586 106.245
lradius 112.416
lwrist 34.498
lhand 5.53217 -11.9319
lfingers 7.12502
lthumb 30.8774 735.493
rfemur -367.838 -24.3562 366.931
rtibia 29.1955
rfoot 5.93163 -10.9881
rtoes 14.5524
lfemur -6.84961 1.5286 -15.0691
ltibia 20.1941
lfoot 6.99786 9.92625
ltoes 2.44785
